<?xml version="1.0" encoding="iso-8859-1"?>
<!DOCTYPE svg PUBLIC "-//W3C//DTD SVG 1.1//EN" "http://www.w3.org/Graphics/SVG/1.1/DTD/svg11.dtd">
<svg 
 version="1.1" xmlns="http://www.w3.org/2000/svg" xmlns:xlink="http://www.w3.org/1999/xlink" x="0px" y="0px" width="512px"
	 height="512px" viewBox="0 0 512 512" enable-background="new 0 0 512 512" xml:space="preserve"
><g id="e6c6b53d3c8160b22dad35a0f70b8bda"><g></g><g fill="#44d9e6"><path display="inline" d="M388.115,287.081c-4.117,4.112-9.694,6.425-15.511,6.425c-5.817,0-11.395-2.309-15.506-6.421
		l-51.179-51.174c-6.275-6.275-8.152-15.708-4.755-23.902c3.393-8.199,11.39-13.54,20.261-13.54h21.67
		c-20.124-57.19-74.652-98.31-138.634-98.31c-81.024,0-146.94,65.916-146.94,146.939c0,81.022,65.916,146.94,146.94,146.94
		c15.746,0,28.511,12.765,28.511,28.511s-12.765,28.511-28.511,28.511C91.997,451.061,0.5,359.565,0.5,247.099
		c0-112.464,91.497-203.961,203.961-203.961c95.709,0,176.187,66.276,198.059,155.331h21.254c8.871,0,16.868,5.341,20.261,13.54
		c3.397,8.194,1.521,17.626-4.75,23.897L388.115,287.081z M320.158,420.313c27.238-21.092,40.414-33.831,40.414-59.531v-0.441
		c0-28.772-21.088-47.448-52.939-47.448c-27.461,0-42.18,11.206-57.33,31.853l23.718,19.112
		c11.429-14.059,19.554-20.646,31.419-20.646c12.08,0,20.646,7.025,20.646,19.987c0,12.738-7.471,21.087-26.579,36.906
		l-51.183,41.956v26.802H362.11v-29.218h-66.998L320.158,420.313z M511.5,408.229v27.462h-20.642v33.171h-32.298v-33.171h-75.128
		l-5.495-23.944l84.354-97.753h28.566v94.235H511.5z M458.561,360.341l-40.859,47.889h40.859V360.341z"></path></g></g></svg>